<svg xmlns="http://www.w3.org/2000/svg" xmlns:xlink="http://www.w3.org/1999/xlink" version="1.1" id="layer" x="0px" y="0px" style="enable-background:new -153 -46 652 652;" xml:space="preserve" viewBox="-131.2 232.4 600.1 85.6"><style type="text/css">	.st0{fill:#1D3649;}</style><path class="st0" d="M332.1,254.9L332.1,254.9h-18.4v42.8h7.7V284h10.7c8.1,0,14.5-6.4,14.5-14.5S340.2,254.9,332.1,254.9  L332.1,254.9L332.1,254.9L332.1,254.9z M338.5,269.4c0,3.8-2.6,7.3-6.4,7.3h-0.4l0,0h-10.3v-14.5h10.3  C335.5,262.2,338.5,265.1,338.5,269.4C338.5,269,338.5,269.4,338.5,269.4L338.5,269.4L338.5,269.4z M401.8,283.1l6,6.8l12.4-11.5  l26.9,30.4h-33.3c-18.8,0-33.7-15-33.7-33.7s15-33.7,33.7-33.7h32.5l-18,17.1l6,6.8l34.6-32.9h-55.2c-23.5,0-42.8,19.2-42.8,42.8  s19.2,42.8,42.8,42.8h53l-46.1-52.6L401.8,283.1L401.8,283.1z M-58,254c-0.9,0-1.3,0-2.1,0c-12.4-0.4-22.7,9-23.1,21.4  c-0.4,12.4,9,22.7,21.4,23.1c0.9,0,1.3,0,2.1,0c12.4,0.4,22.7-9,23.1-21.4C-36.2,265.1-45.6,254.4-58,254z M-45.2,276.2  c0,8.1-6.4,15-14.5,15.4h-0.4c-8.1,0-15-6.4-15-14.5v-0.4c-0.9-8.1,5.1-15.8,13.3-16.7c8.1-0.9,15.8,5.1,16.7,13.3  C-44.8,274.1-44.8,275.4-45.2,276.2L-45.2,276.2L-45.2,276.2z M23.6,254.9H8.2v42.8h15.4c14.5,0,22.2-8.5,22.2-21.4  C45.8,263.4,38.1,254.8,23.6,254.9L23.6,254.9z M23.2,290.7h-7.3v-29h7.3c11.1,0,15.4,6.4,15.4,14.5  C38.6,284.8,34.3,290.7,23.2,290.7z M-110.6,279.7h12v8.1c-3,2.6-6.4,3.8-10.3,3.8c-8.1,0-15-6.4-15-14.5c0-0.4,0-0.4,0-0.9  c0-8.1,6.4-15,14.5-15.4h0.4c3.8,0,8.1,1.3,10.7,4.3l5.1-4.7c-4.3-4.3-9.8-6.4-15.8-6.4c-12.4,0-22.2,9.8-22.2,22.2  c0,12.4,9.8,22.2,22.2,22.2c6.8,0,13.3-3,17.5-8.1v-17.1h-19.2L-110.6,279.7L-110.6,279.7z M-19.6,254.9h-7.7v42.8h24.8v-6.8h-17.1  C-19.6,290.8-19.6,254.9-19.6,254.9z M232.6,280.5c0,7.7-3.8,11.1-9.8,11.1c-6,0-9.8-3.4-9.8-11.1v-25.7h-7.7v26.5  c0,9.4,7.7,17.5,17.5,17.5c9.4,0,17.5-7.7,17.5-17.5v-26.5h-7.7L232.6,280.5L232.6,280.5z M261.6,254.9h-7.7v42.8h24.3v-6.8h-16.7  L261.6,254.9z M290.2,254.9h7.7v42.8h-7.7V254.9z M162,261.7h12.8v35.9h7.7v-35.9h12.8v-6.8H162L162,261.7z M128.7,284.3L106,254.9  h-6.8v42.8h7.3v-30.4l23.5,30.4h6v-42.8h-7.3L128.7,284.3z M65,278.8h18.4V272H65v-10.3h19.6v-6.8H57.3v42.8h27.8v-6.8H65L65,278.8z  "></path></svg>