<svg xmlns="http://www.w3.org/2000/svg" id="svg" class="transition duration-300 ease-in-out delay-150" viewBox="0 0 1440 243.32"><defs><linearGradient id="gradient"><stop offset="0%" stop-color="#243edd"/><stop offset="100%" stop-color="#4c79e1"/></linearGradient></defs>
<path d="M 0,400 C 0,400 0,200 0,200 C 71.57894736842107,203.02392344497608 143.15789473684214,206.04784688995215 242,201 C 340.84210526315786,195.95215311004785 466.9473684210526,182.83253588516746 567,195 C 667.0526315789474,207.16746411483254 741.0526315789473,244.62200956937798 832,239 C 922.9473684210527,233.37799043062202 1030.842105263158,184.6794258373206 1135,171 C 1239.157894736842,157.3205741626794 1339.578947368421,178.6602870813397 1440,200 C 1440,200 1440,400 1440,400 Z" fill="#f5ecf9" class="transition-all duration-300 ease-in-out delay-150" transform="translate(0 10) rotate(-180 720 200)"/>
<path d="M 0,400 C 0,400 0,200 0,200 C 71.57894736842107,203.02392344497608 143.15789473684214,206.04784688995215 242,201 C 340.84210526315786,195.95215311004785 466.9473684210526,182.83253588516746 567,195 C 667.0526315789474,207.16746411483254 741.0526315789473,244.62200956937798 832,239 C 922.9473684210527,233.37799043062202 1030.842105263158,184.6794258373206 1135,171 C 1239.157894736842,157.3205741626794 1339.578947368421,178.6602870813397 1440,200 C 1440,200 1440,400 1440,400 Z" fill="url(#gradient)" class="transition-all duration-300 ease-in-out delay-150" transform="rotate(-180 720 200)"/></svg>